<svg width="1000" height="1000" viewBox="0 0 1000 1000" fill="none" xmlns="http://www.w3.org/2000/svg">
<rect width="1000" height="1000" rx="50" fill="#FFAC75"/>
<path fill-rule="evenodd" clip-rule="evenodd" d="M354 697.082C430.027 621.055 504 542.274 504 462.836C504 383.397 436.843 319 354 319C271.157 319 204 383.397 204 462.836C204 542.274 304.685 647.767 354 697.082ZM356.055 528.589C392.369 528.589 421.808 498.23 421.808 460.781C421.808 423.332 392.369 392.973 356.055 392.973C319.74 392.973 290.301 423.332 290.301 460.781C290.301 498.23 319.74 528.589 356.055 528.589Z" fill="#1E1E1E"/>
<path fill-rule="evenodd" clip-rule="evenodd" d="M604 697.082C680.027 621.055 754 542.274 754 462.836C754 383.397 686.843 319 604 319C521.157 319 454 383.397 454 462.836C454 542.274 554.685 647.767 604 697.082ZM606.055 528.589C642.369 528.589 671.808 498.23 671.808 460.781C671.808 423.332 642.369 392.973 606.055 392.973C569.74 392.973 540.301 423.332 540.301 460.781C540.301 498.23 569.74 528.589 606.055 528.589Z" fill="#1E1E1E"/>
<path fill-rule="evenodd" clip-rule="evenodd" d="M396 680.082C472.027 604.055 546 525.274 546 445.836C546 366.397 478.843 302 396 302C313.157 302 246 366.397 246 445.836C246 525.274 346.685 630.767 396 680.082ZM398.055 511.589C434.369 511.589 463.808 481.23 463.808 443.781C463.808 406.332 434.369 375.973 398.055 375.973C361.74 375.973 332.301 406.332 332.301 443.781C332.301 481.23 361.74 511.589 398.055 511.589Z" fill="white"/>
<path fill-rule="evenodd" clip-rule="evenodd" d="M646 680.082C722.027 604.055 796 525.274 796 445.836C796 366.397 728.843 302 646 302C563.157 302 496 366.397 496 445.836C496 525.274 596.685 630.767 646 680.082ZM648.055 511.589C684.369 511.589 713.808 481.23 713.808 443.781C713.808 406.332 684.369 375.973 648.055 375.973C611.74 375.973 582.301 406.332 582.301 443.781C582.301 481.23 611.74 511.589 648.055 511.589Z" fill="white"/>
</svg>
